<svg width="231" height="32" viewBox="0 0 231 32" fill="none" xmlns="http://www.w3.org/2000/svg">
<path fill-rule="evenodd" clip-rule="evenodd" d="M24.366 4.59227C20.4692 -1.53076 11.5308 -1.53076 7.63402 4.59227C6.85485 5.81654 5.81652 6.85488 4.5923 7.63401C-1.53079 11.5308 -1.53074 20.4692 4.5923 24.366C5.81652 25.1451 6.85485 26.1835 7.63402 27.4077C11.5308 33.5308 20.4692 33.5308 24.366 27.4077C25.1451 26.1835 26.1835 25.1451 27.4077 24.366C33.5308 20.4692 33.5308 11.5308 27.4077 7.63401C26.1835 6.85488 25.1451 5.81654 24.366 4.59227ZM25.2155 15.691C20.2031 15.277 16.2252 11.2991 15.8112 6.28678L15.7511 5.55922L15.691 6.28678C15.277 11.2991 11.2991 15.277 6.28676 15.691L5.55921 15.7511L6.28676 15.8112C11.2991 16.2252 15.277 20.2031 15.691 25.2154L15.7511 25.943L15.8112 25.2154C16.2252 20.2031 20.2031 16.2252 25.2155 15.8112L25.943 15.7511L25.2155 15.691Z" fill="white"/>
<path d="M48.96 16.392C48.96 23.176 53.696 25.32 59.488 25.32C64.896 25.32 69.184 23.336 69.184 18.888C69.184 14.888 66.4 14.408 63.52 14.024V12.744C66.4 12.264 68.864 11.624 68.864 8.232C68.864 4.104 64.896 2.12 59.488 2.12C53.696 2.12 49.28 4.264 49.28 10.088H54.4C54.4 7.496 55.488 6.6 59.488 6.6C62.784 6.6 63.744 7.368 63.744 8.872C63.744 10.344 62.88 11.144 60.96 11.144H57.824V15.624H60.96C62.88 15.624 64.064 16.456 64.064 18.248C64.064 20.072 62.784 20.84 59.488 20.84C55.488 20.84 54.08 19.944 54.08 16.392H48.96ZM72.0613 12.776H77.1813C77.1813 8.456 78.9093 6.6 82.7813 6.6C85.6933 6.6 86.6533 8.04 86.6533 9.48C86.6533 14.472 74.6853 15.72 72.3813 16.04V25H91.7733V20.52H76.8613L73.6613 21.48V20.2C84.2213 18.248 91.7733 17.288 91.7733 9.704C91.7733 4.776 88.0613 2.12 82.7173 2.12C76.7973 2.12 72.0613 5.192 72.0613 12.776ZM117.583 25H123.663L114.095 12.68L119.151 6.92H123.023V2.44H118.607C117.199 2.44 116.175 2.952 115.279 3.976L109.071 11.112V2.44H103.951V25H109.071V17.192C109.743 17.064 110.287 16.776 110.831 16.328L117.583 25ZM143.353 25H148.537L142.009 2.44H131.449L124.953 25H130.137L132.153 17.768H141.305L143.353 25ZM133.401 13.288L136.089 3.72H137.369L140.057 13.288H133.401ZM158.891 2.44H150.795V25H155.915V18.28H158.891C164.587 18.28 168.939 17.192 168.939 10.344C168.939 3.528 164.587 2.44 158.891 2.44ZM159.211 13.8H155.915V6.92H159.211C162.251 6.92 163.819 7.24 163.819 10.344C163.819 13.48 162.251 13.8 159.211 13.8ZM186.384 25H191.568L185.04 2.44H174.48L167.984 25H173.168L175.184 17.768H184.336L186.384 25ZM176.432 13.288L179.12 3.72H180.4L183.088 13.288H176.432ZM208.895 2.44H189.023V6.92H196.415V25H201.535V6.92H208.895V2.44ZM225.04 25H230.224L223.696 2.44H213.136L206.64 25H211.824L213.84 17.768H222.992L225.04 25ZM215.088 13.288L217.776 3.72H219.056L221.744 13.288H215.088Z" fill="white"/>
</svg>
